<svg xmlns="http://www.w3.org/2000/svg" width="1150" height="670" viewBox="0 0 1150 670">
  <defs>
    <marker id="arrow" markerWidth="10" markerHeight="8" refX="9" refY="4" orient="auto"><path d="M0,0 L10,4 L0,8 Z" fill="#1769aa"/></marker>
    <style>
      text{font-family:Arial,"DejaVu Sans",sans-serif;fill:#183047}.title{font-size:23px;font-weight:bold}.label{font-size:14px}.small{font-size:12px}.process{fill:#e5f5fb;stroke:#2384a8;stroke-width:2}.entity{fill:#e8edff;stroke:#596fb4;stroke-width:2}.store{fill:#fff2c9;stroke:#b88b22;stroke-width:2}.flow{fill:none;stroke:#1769aa;stroke-width:2;marker-end:url(#arrow)}.boundary{fill:#f0f8fc;stroke:#1769aa;stroke-width:1.5;stroke-dasharray:6 4}
    </style>
  </defs>
  <rect width="1150" height="670" fill="#fff"/>
  <text x="575" y="42" text-anchor="middle" class="title">DFD mức 2 - 1.4 Theo dõi tương tác và đo lường hiệu suất</text>
  <rect x="25" y="265" width="190" height="78" rx="4" class="entity"/><text x="120" y="298" text-anchor="middle" class="label"><tspan x="120">Nền tảng</tspan><tspan x="120" dy="20">Fanpage</tspan></text>
  <rect x="955" y="105" width="170" height="78" rx="4" class="entity"/><text x="1040" y="138" text-anchor="middle" class="label"><tspan x="1040">Quản lí</tspan><tspan x="1040" dy="20">cửa hàng</tspan></text>
  <rect x="955" y="475" width="170" height="78" rx="4" class="entity"/><text x="1040" y="508" text-anchor="middle" class="label"><tspan x="1040">Nhân viên</tspan><tspan x="1040" dy="20">Marketing</tspan></text>
  <rect x="390" y="525" width="280" height="78" class="store"/><rect x="390" y="525" width="52" height="78" fill="#f1d985" stroke="#b88b22" stroke-width="2"/><text x="416" y="569" text-anchor="middle" class="label">D18</text><text x="540" y="559" text-anchor="middle" class="label"><tspan x="540">Chỉ số tương tác</tspan><tspan x="540" dy="20">&amp; hiệu suất nội dung</tspan></text>
  <rect x="270" y="120" width="195" height="90" rx="18" class="process"/><text x="367" y="155" text-anchor="middle" class="label"><tspan x="367">1.4.1 Thu thập</tspan><tspan x="367" dy="20">số liệu bài đăng</tspan></text>
  <rect x="520" y="120" width="195" height="90" rx="18" class="process"/><text x="617" y="155" text-anchor="middle" class="label"><tspan x="617">1.4.2 Tổng hợp và</tspan><tspan x="617" dy="20">đánh giá hiệu suất</tspan></text>
  <rect x="770" y="265" width="195" height="90" rx="18" class="process"/><text x="867" y="300" text-anchor="middle" class="label"><tspan x="867">1.4.3 Lưu chỉ số</tspan><tspan x="867" dy="20">và lập báo cáo</tspan></text>
  <path d="M215 285 H240 V165 H270" class="flow"/><text x="222" y="248" class="small">Lượt tiếp cận, thích,</text><text x="222" y="265" class="small">bình luận, chia sẻ</text>
  <path d="M465 165 H520" class="flow"/><text x="492" y="147" text-anchor="middle" class="small">Dữ liệu tương tác</text>
  <path d="M715 165 H740 V310 H770" class="flow"/><text x="725" y="248" class="small">Chỉ số tổng hợp,</text><text x="725" y="265" class="small">so sánh mục tiêu</text>
  <path d="M867 355 V430 H530 V525" class="flow"/><text x="600" y="420" text-anchor="middle" class="small">Dữ liệu thống kê tổng hợp</text>
  <path d="M390 564 H340 V245 H617 V210" class="flow"/><text x="480" y="235" text-anchor="middle" class="small">Dữ liệu tương tác đã lưu</text>
  <path d="M965 290 H1000 V183 H1040" class="flow"/><text x="978" y="224" class="small">Báo cáo hiệu quả</text>
  <path d="M965 330 H1000 V514 H955" class="flow"/><text x="980" y="458" class="small">Báo cáo hiệu quả</text>
</svg>