<svg xmlns="http://www.w3.org/2000/svg" width="1100" height="650" viewBox="0 0 1100 650">
  <defs>
    <marker id="arrow" markerWidth="10" markerHeight="8" refX="9" refY="4" orient="auto"><path d="M0,0 L10,4 L0,8 Z" fill="#1769aa"/></marker>
    <style>
      text{font-family:Arial,"DejaVu Sans",sans-serif;fill:#183047}.title{font-size:23px;font-weight:bold}.label{font-size:14px}.small{font-size:12px}.process{fill:#e5f5fb;stroke:#2384a8;stroke-width:2}.entity{fill:#e8edff;stroke:#596fb4;stroke-width:2}.store{fill:#fff2c9;stroke:#b88b22;stroke-width:2}.flow{fill:none;stroke:#1769aa;stroke-width:2;marker-end:url(#arrow)}.boundary{fill:#f0f8fc;stroke:#1769aa;stroke-width:1.5;stroke-dasharray:6 4}
    </style>
  </defs>
  <rect width="1100" height="650" fill="#fff"/>
  <text x="550" y="42" text-anchor="middle" class="title">DFD mức 2 - 1.3 Đăng tải và phân phối nội dung</text>
  <rect x="850" y="268" width="210" height="78" rx="4" class="entity"/><text x="955" y="301" text-anchor="middle" class="label"><tspan x="955">Nền tảng</tspan><tspan x="955" dy="20">Fanpage</tspan></text>
  <rect x="375" y="485" width="270" height="78" class="store"/><rect x="375" y="485" width="52" height="78" fill="#f1d985" stroke="#b88b22" stroke-width="2"/><text x="401" y="529" text-anchor="middle" class="label">D17</text><text x="530" y="519" text-anchor="middle" class="label"><tspan x="530">Bài viết và tài nguyên</tspan><tspan x="530" dy="20">truyền thông</tspan></text>
  <rect x="265" y="130" width="210" height="90" rx="18" class="process"/><text x="370" y="165" text-anchor="middle" class="label"><tspan x="370">1.3.1 Kiểm tra bài</tspan><tspan x="370" dy="20">đã duyệt và lịch đăng</tspan></text>
  <rect x="545" y="130" width="210" height="90" rx="18" class="process"/><text x="650" y="165" text-anchor="middle" class="label"><tspan x="650">1.3.2 Đăng bài lên</tspan><tspan x="650" dy="20">nền tảng Fanpage</tspan></text>
  <rect x="545" y="365" width="210" height="90" rx="18" class="process"/><text x="650" y="400" text-anchor="middle" class="label"><tspan x="650">1.3.3 Ghi nhận kết quả</tspan><tspan x="650" dy="20">và cập nhật trạng thái</tspan></text>
  <path d="M475 175 H545" class="flow"/><text x="510" y="156" text-anchor="middle" class="small">Bài đã duyệt</text>
  <path d="M755 175 H800 V288 H850" class="flow"/><text x="780" y="247" text-anchor="middle" class="small">Bài viết chính thức</text>
  <path d="M850 325 H800 V410 H755" class="flow"/><text x="797" y="392" text-anchor="middle" class="small">Mã bài đăng, trạng thái</text>
  <path d="M650 455 V485" class="flow"/><text x="661" y="478" class="small">Trạng thái đăng</text>
  <path d="M375 524 H330 V220 H370" class="flow"/><text x="337" y="390" class="small">Bài viết đã duyệt,</text><text x="337" y="407" class="small">yêu cầu gỡ bài</text>
</svg>